<svg width="486" height="172" viewBox="0 0 486 172" fill="none" xmlns="http://www.w3.org/2000/svg">
	<path d="M24.6533 87.8605V166.064H5.85449V87.8605H24.6533ZM69.7705 87.8605L41.6797 135.126H21.377L19.1211 118.1H31.958L46.9971 87.8605H69.7705ZM50.2197 166.064L31.9043 131.85L45.6006 119.228L72.4561 166.064H50.2197ZM110.322 104.296L91.2549 166.064H71.0059L99.7412 87.8605H112.578L110.322 104.296ZM126.113 166.064L106.992 104.296L104.521 87.8605H117.52L146.416 166.064H126.113ZM125.361 136.899V151.454H85.2393V136.899H125.361ZM183.369 139.53H163.926V124.975H183.369C186.019 124.975 188.167 124.527 189.814 123.632C191.462 122.737 192.661 121.501 193.413 119.926C194.201 118.315 194.595 116.506 194.595 114.501C194.595 112.353 194.201 110.365 193.413 108.539C192.661 106.713 191.462 105.245 189.814 104.135C188.167 102.989 186.019 102.416 183.369 102.416H171.016V166.064H152.163V87.8605H183.369C189.635 87.8605 195.024 89.0064 199.536 91.298C204.084 93.5897 207.575 96.7407 210.01 100.751C212.445 104.726 213.662 109.273 213.662 114.394C213.662 119.443 212.445 123.847 210.01 127.607C207.575 131.366 204.084 134.303 199.536 136.415C195.024 138.492 189.635 139.53 183.369 139.53ZM235.63 114.77H252.441C258.779 114.77 264.294 115.826 268.984 117.939C273.675 120.051 277.292 123.005 279.834 126.801C282.412 130.597 283.701 135.037 283.701 140.121C283.701 143.953 282.967 147.462 281.499 150.649C280.031 153.8 277.918 156.539 275.161 158.866C272.44 161.158 269.163 162.931 265.332 164.184C261.501 165.437 257.204 166.064 252.441 166.064H223.867V87.8605H242.773V151.562H252.441C255.127 151.562 257.383 151.043 259.209 150.004C261.071 148.966 262.485 147.587 263.452 145.868C264.419 144.114 264.902 142.162 264.902 140.014C264.902 137.937 264.419 136.093 263.452 134.482C262.485 132.87 261.071 131.599 259.209 130.668C257.383 129.737 255.127 129.272 252.441 129.272H235.63V114.77ZM346.167 151.562V166.064H304.487V151.562H346.167ZM311.201 87.8605V166.064H292.349V87.8605H311.201ZM340.796 118.905V132.924H304.487V118.905H340.796ZM346.328 87.8605V102.416H304.487V87.8605H346.328ZM385.107 139.53H365.664V124.975H385.107C387.757 124.975 389.906 124.527 391.553 123.632C393.2 122.737 394.399 121.501 395.151 119.926C395.939 118.315 396.333 116.506 396.333 114.501C396.333 112.353 395.939 110.365 395.151 108.539C394.399 106.713 393.2 105.245 391.553 104.135C389.906 102.989 387.757 102.416 385.107 102.416H372.754V166.064H353.901V87.8605H385.107C391.374 87.8605 396.763 89.0064 401.274 91.298C405.822 93.5897 409.313 96.7407 411.748 100.751C414.183 104.726 415.4 109.273 415.4 114.394C415.4 119.443 414.183 123.847 411.748 127.607C409.313 131.366 405.822 134.303 401.274 136.415C396.763 138.492 391.374 139.53 385.107 139.53ZM449.131 104.296L430.063 166.064H409.814L438.55 87.8605H451.387L449.131 104.296ZM464.922 166.064L445.801 104.296L443.33 87.8605H456.328L485.225 166.064H464.922ZM464.17 136.899V151.454H424.048V136.899H464.17Z" fill="black" />
	<path fill-rule="evenodd" clip-rule="evenodd" d="M181.05 37.4728C179.326 37.4728 177.758 37.9352 176.348 38.7058L158.948 13.2761L139.981 33.774L126.657 13.2761L106.436 36.394C106.592 35.6234 106.592 35.0069 106.592 34.2363C106.592 28.5339 104.555 23.448 101.263 19.2868L65.8364 50.1106C70.0688 54.7341 76.3389 57.6624 83.0793 57.6624C86.3711 57.6624 89.5062 57.0459 92.3278 55.813C95.7763 54.58 98.9114 52.4224 101.419 49.6482L113.333 36.394L126.5 56.5836L145.31 36.2399L158.948 56.8918L171.802 44.4082C171.802 44.4082 171.802 44.4082 171.958 44.4082C171.802 45.1788 171.645 46.1035 171.645 46.8741C171.645 52.2682 176.034 56.5836 181.364 56.5836C182.147 56.5836 182.931 56.4295 183.558 56.2753C186.38 55.813 187.947 54.8883 190.299 53.0388L208.012 34.3904C208.169 47.1823 218.671 57.6624 231.525 57.6624C241.087 57.6624 249.238 51.96 253 43.7917H247.514C238.265 54.58 224.157 55.9671 216.476 43.3293L234.033 25.6057C234.033 25.4515 233.092 28.0716 233.249 28.5339C233.249 32.541 234.346 34.3904 237.952 36.5481C250.492 40.7093 257.232 20.828 242.341 13.4302C239.519 11.8891 235.6 10.8102 231.525 10.8102C221.649 10.8102 213.185 16.8209 209.736 25.4515L200.958 13.122L173.526 13.2761L193.277 43.1752L190.612 45.9494C189.985 41.1717 185.91 37.4728 181.05 37.4728ZM82.9226 10.8102C88.4089 10.8102 93.425 12.6597 97.5006 15.8962C97.6574 16.0503 97.9709 16.2044 98.1276 16.3585L63.0149 46.8741C58.7825 50.5729 54.3934 54.2718 50.1611 57.9706C49.8476 58.2789 49.5341 58.2789 49.2206 57.9706L29.3129 36.394V53.5012L0 67.0637V15.4338L29.3129 2.17956V21.1362L42.9504 4.64546C45.6152 1.87132 47.9665 0.484247 51.5719 0.0218901C55.8042 -0.132229 57.5285 0.484247 60.8203 3.25839C63.9554 7.11137 64.2689 11.5808 61.9176 15.4338C60.1933 18.3621 56.7447 20.5197 52.5124 20.3656C46.5558 20.0574 43.4207 14.2008 43.2639 12.1973L30.0967 28.5339C30.0967 28.688 30.0967 28.688 30.0967 28.8422C36.5235 36.394 42.9504 43.9458 49.3773 51.6518C49.6908 51.96 50.0043 51.96 50.4746 51.6518L60.9771 42.7129C60.0366 40.0928 59.4095 37.3187 59.4095 34.3904C59.4095 21.4444 69.912 10.8102 82.9226 10.8102ZM89.0359 35.4693C93.425 35.4693 97.0304 39.1681 97.0304 43.7917C97.0304 48.2612 93.425 52.1141 89.0359 52.1141C84.6468 52.1141 81.0415 48.4153 81.0415 43.7917C81.0415 39.1681 84.6468 35.4693 89.0359 35.4693Z" fill="#BB0000" />
</svg>
